<?xml version="1.0" encoding="utf-8"?>
<!-- Generator: Adobe Illustrator 21.0.0, SVG Export Plug-In . SVG Version: 6.00 Build 0)  -->
<svg version="1.1" id="Layer_1" xmlns="http://www.w3.org/2000/svg" xmlns:xlink="http://www.w3.org/1999/xlink" x="0px" y="0px"
	 viewBox="0 0 193.8 86.3" style="enable-background:new 0 0 193.8 86.3;" xml:space="preserve">
<style type="text/css">
	.st0{enable-background:new    ;}
	.st1{fill:#333;}
	.st2{fill:#008DE7;}
</style>
<title>logo_apptite</title>
<g>
	<g>
		<g>
			<g class="st0">
				<path class="st1" d="M33.3,54.5V67c0,1.8-1.3,3.2-3.2,3.2c-1.3,0-3.1-1.3-3.1-3.2c-2.7,2.3-5.8,3.2-9.4,3.2
					c-9,0-16.1-6.7-16.1-15.6c0-9,7.1-16.1,16.1-16.1C26.6,38.4,33.3,45.5,33.3,54.5z M27.1,54.5c0-5.3-4.1-9.9-9.4-9.9
					c-5.3,0-9.9,4.5-9.9,9.9c0,5.3,4.5,9.4,9.9,9.4C23,63.9,27.1,59.8,27.1,54.5z"/>
				<path class="st1" d="M43.5,67.2v15.8c0,1.7-1.4,3.1-3.1,3.1c-1.8,0-3.2-1.4-3.2-3.1V54.6v-0.1c0-8.8,7.2-16,16-16
					c8.8,0,16,7.2,16,16c0,8.8-7.1,16-16,16C49.5,70.5,46.2,69.3,43.5,67.2z M43.5,54.5L43.5,54.5c0,5.3,4.3,9.7,9.7,9.7
					s9.7-4.3,9.7-9.7c0-5.3-4.3-9.7-9.7-9.7S43.5,49.2,43.5,54.5z"/>
				<path class="st1" d="M79.2,67.2v15.8c0,1.7-1.4,3.1-3.1,3.1c-1.8,0-3.2-1.4-3.2-3.1V54.6v-0.1c0-8.8,7.2-16,16-16
					c8.8,0,16,7.2,16,16c0,8.8-7.1,16-16,16C85.2,70.5,81.8,69.3,79.2,67.2z M79.2,54.5L79.2,54.5c0,5.3,4.3,9.7,9.7,9.7
					s9.7-4.3,9.7-9.7c0-5.3-4.3-9.7-9.7-9.7S79.2,49.2,79.2,54.5z"/>
				<path class="st1" d="M125.9,41.5c0,1.7-1.4,3.2-3.2,3.2h-4.5v22.5c0,1.7-1.4,3.2-3.2,3.2c-1.7,0-3.1-1.5-3.1-3.2V44.6h-4.6
					c-1.7,0-3.1-1.5-3.1-3.2c0-1.7,1.4-3.1,3.1-3.1h4.6V25.6c0-1.7,1.4-3.1,3.1-3.1c1.8,0,3.2,1.4,3.2,3.1v12.7h4.5
					C124.5,38.3,125.9,39.7,125.9,41.5z"/>
				<path class="st1" d="M130.8,31.1c-0.6-0.6-1-1.4-1-2.2c0-0.8,0.4-1.7,1-2.2c0.6-0.6,1.4-1,2.2-1c0.8,0,1.7,0.4,2.2,1
					c0.6,0.6,0.9,1.4,0.9,2.2c0,0.8-0.3,1.7-0.9,2.2S133.8,32,133,32C132.2,32,131.3,31.7,130.8,31.1z M129.8,67.1V41.5
					c0-1.7,1.4-3.1,3.2-3.1c1.7,0,3.1,1.4,3.1,3.1v25.6c0,1.8-1.4,3.2-3.1,3.2C131.2,70.3,129.8,68.9,129.8,67.1z"/>
				<path class="st1" d="M161.7,41.5c0,1.7-1.4,3.2-3.2,3.2H154v22.5c0,1.7-1.4,3.2-3.2,3.2c-1.7,0-3.1-1.5-3.1-3.2V44.6h-4.6
					c-1.7,0-3.1-1.5-3.1-3.2c0-1.7,1.4-3.1,3.1-3.1h4.6V25.6c0-1.7,1.4-3.1,3.1-3.1c1.8,0,3.2,1.4,3.2,3.1v12.7h4.5
					C160.3,38.3,161.7,39.7,161.7,41.5z"/>
				<path class="st1" d="M193.5,54.2c0,1.7-1.4,3.1-3.2,3.1h-21.9c1.3,3.8,4.9,6.6,9.2,6.6c1.5,0,4.1-0.1,7.1-2.1
					c1.5-1,3.4-0.1,4.2,1.5c0.8,1.6-0.1,3.2-1.5,4.2c-4.2,2.8-7.4,2.7-9.8,2.7c-8.8,0-16-7.2-16-16c0-8.8,7.1-16,16-16
					C185.2,38.3,193.5,43.9,193.5,54.2z M168.3,51.1h18.4c-1.3-4.5-5.4-6.5-9.2-6.5C173.2,44.6,169.7,47.3,168.3,51.1z"/>
			</g>
		</g>
	</g>
	<path class="st2" d="M144.4,13.1c-1.8-0.6-3-2.3-3-4.3c0,0,0,0,0-0.1c-2.2-0.4-3.9-2.3-3.9-4.6c-1.7,0-3.2-0.9-4-2.3
		c-0.2,0-0.4,0-0.6,0c-6.4,0-11.5,5.2-11.5,11.5c0,1.6,0.3,3.2,1,4.6l0,0l0,0c0.1,0.2,0.2,0.4,0.3,0.6l6,12.5c0.7,1.7,2.3,3,4.3,3
		s3.7-1.2,4.3-3l6-12.5c0.1-0.2,0.2-0.4,0.3-0.6l0,0l0,0c0.6-1.4,1-3,1-4.6C144.4,13.3,144.4,13.2,144.4,13.1z M132.9,18
		c-2.5,0-4.6-2.1-4.6-4.6s2.1-4.6,4.6-4.6s4.6,2.1,4.6,4.6S135.5,18,132.9,18z"/>
</g>
</svg>
