<svg id="Layer_1" data-name="Layer 1" xmlns="http://www.w3.org/2000/svg" viewBox="0 0 225.11 62.11"><defs><style>.cls-1{font-size:56.31px;fill:#fff;font-family:Arciform, Arciform Sans;}.cls-2{letter-spacing:0.01em;}.cls-3{letter-spacing:-0.03em;}.cls-4{letter-spacing:0.02em;}.cls-5{letter-spacing:0.03em;}.cls-6{letter-spacing:-0.01em;}.cls-7{fill:#369ccd;}</style></defs><title>logo_apptite</title><text class="cls-1" transform="translate(53.54 47.86)"><tspan class="cls-2">ap</tspan><tspan class="cls-3" x="63.12" y="0">p</tspan><tspan class="cls-4" x="92.45" y="0">t</tspan><tspan class="cls-5" x="113.17" y="0">i</tspan><tspan class="cls-6" x="124.1" y="0">t</tspan><tspan x="142.68" y="0">e</tspan></text><path class="cls-7" d="M51,15.95a5,5,0,0,1-2.08.45,5.37,5.37,0,0,1-5.09-4.1,5.09,5.09,0,0,1-3.38,1.32,5.51,5.51,0,0,1-5.33-5.68,6,6,0,0,1,.21-1.48,5,5,0,0,1-1.39.21A5.43,5.43,0,0,1,28.71,2C18.25,3.4,10.16,12.89,10.16,24.42c0,12.49,21.47,33,21.47,33s21-20.48,21-33A23.69,23.69,0,0,0,51,15.95ZM32,31.69a7.54,7.54,0,0,1-7.28-7.77A7.54,7.54,0,0,1,32,16.15a7.54,7.54,0,0,1,7.28,7.77A7.54,7.54,0,0,1,32,31.69Z" transform="translate(-10.16 2.51)"/></svg>