<?xml version="1.0" encoding="utf-8"?>
<!-- Generator: Adobe Illustrator 21.0.0, SVG Export Plug-In . SVG Version: 6.00 Build 0)  -->
<svg version="1.1" id="Layer_1" xmlns="http://www.w3.org/2000/svg" xmlns:xlink="http://www.w3.org/1999/xlink" x="0px" y="0px"
	 viewBox="0 0 193.8 86.3" style="enable-background:new 0 0 193.8 86.3;" xml:space="preserve">
<style type="text/css">
	.st0{fill:#FFFFFF;}
	.st1{font-family:'Arciform';}
	.st2{font-size:63.5999px;}
	.st3{fill:#008DE7;}
</style>
<title>logo_apptite</title>
<g>
	<g>
		<g>
			<text transform="matrix(1 0 0 1 0 70.2083)" class="st0 st1 st2">apptite</text>
		</g>
	</g>
	<path class="st3" d="M144.4,13.1c-1.8-0.6-3-2.3-3-4.3c0,0,0,0,0-0.1c-2.2-0.4-3.9-2.3-3.9-4.6c-1.7,0-3.2-0.9-4-2.3
		c-0.2,0-0.4,0-0.6,0c-6.4,0-11.5,5.2-11.5,11.5c0,1.6,0.3,3.2,1,4.6h0l0,0c0.1,0.2,0.2,0.4,0.3,0.6l6,12.5c0.7,1.7,2.3,3,4.3,3
		c2,0,3.7-1.2,4.3-3l6-12.5c0.1-0.2,0.2-0.4,0.3-0.6l0,0h0c0.6-1.4,1-3,1-4.6C144.4,13.3,144.4,13.2,144.4,13.1z M132.9,18
		c-2.5,0-4.6-2.1-4.6-4.6s2.1-4.6,4.6-4.6c2.5,0,4.6,2.1,4.6,4.6S135.5,18,132.9,18z"/>
</g>
</svg>
